<mxfile host="app.diagrams.net" agent="Mozilla/5.0 (Windows NT 10.0; Win64; x64) AppleWebKit/537.36 (KHTML, like Gecko) Chrome/130.0.0.0 Safari/537.36 Edg/130.0.0.0" version="24.8.1">
  <diagram name="Страница — 1" id="USyX7R3ZZnqhKdChq29F">
    <mxGraphModel dx="2903" dy="1100" grid="1" gridSize="10" guides="1" tooltips="1" connect="1" arrows="1" fold="1" page="1" pageScale="1" pageWidth="827" pageHeight="1169" math="0" shadow="0">
      <root>
        <mxCell id="0" />
        <mxCell id="1" parent="0" />
        <mxCell id="4f2rP_CuyKLgWLRIfdCz-1" value="USG.exe&lt;div&gt;(ископаемый файл)&lt;/div&gt;" style="rounded=0;whiteSpace=wrap;html=1;" parent="1" vertex="1">
          <mxGeometry x="190" y="95" width="170" height="55" as="geometry" />
        </mxCell>
        <mxCell id="4f2rP_CuyKLgWLRIfdCz-2" value="" style="rounded=0;whiteSpace=wrap;html=1;" parent="1" vertex="1">
          <mxGeometry x="170" y="110" width="30" height="10" as="geometry" />
        </mxCell>
        <mxCell id="4f2rP_CuyKLgWLRIfdCz-3" value="" style="rounded=0;whiteSpace=wrap;html=1;" parent="1" vertex="1">
          <mxGeometry x="170" y="130" width="30" height="10" as="geometry" />
        </mxCell>
        <mxCell id="4f2rP_CuyKLgWLRIfdCz-4" value="USG.dpr&lt;div&gt;(файл проекта)&lt;/div&gt;" style="rounded=0;whiteSpace=wrap;html=1;" parent="1" vertex="1">
          <mxGeometry x="190" y="210" width="170" height="55" as="geometry" />
        </mxCell>
        <mxCell id="4f2rP_CuyKLgWLRIfdCz-5" value="" style="rounded=0;whiteSpace=wrap;html=1;" parent="1" vertex="1">
          <mxGeometry x="170" y="225" width="30" height="10" as="geometry" />
        </mxCell>
        <mxCell id="4f2rP_CuyKLgWLRIfdCz-6" value="" style="rounded=0;whiteSpace=wrap;html=1;" parent="1" vertex="1">
          <mxGeometry x="170" y="245" width="30" height="10" as="geometry" />
        </mxCell>
        <mxCell id="4f2rP_CuyKLgWLRIfdCz-8" value="" style="endArrow=classic;html=1;rounded=0;entryX=0.5;entryY=0;entryDx=0;entryDy=0;exitX=0.5;exitY=1;exitDx=0;exitDy=0;dashed=1;dashPattern=12 12;" parent="1" edge="1">
          <mxGeometry width="50" height="50" relative="1" as="geometry">
            <mxPoint x="274.84" y="150" as="sourcePoint" />
            <mxPoint x="274.84" y="210" as="targetPoint" />
          </mxGeometry>
        </mxCell>
        <mxCell id="4f2rP_CuyKLgWLRIfdCz-10" value="Zastavka.dfm&lt;div&gt;(форма заставки)&lt;/div&gt;" style="rounded=0;whiteSpace=wrap;html=1;" parent="1" vertex="1">
          <mxGeometry x="190" y="320" width="170" height="55" as="geometry" />
        </mxCell>
        <mxCell id="4f2rP_CuyKLgWLRIfdCz-11" value="" style="rounded=0;whiteSpace=wrap;html=1;" parent="1" vertex="1">
          <mxGeometry x="170" y="335" width="30" height="10" as="geometry" />
        </mxCell>
        <mxCell id="4f2rP_CuyKLgWLRIfdCz-12" value="" style="rounded=0;whiteSpace=wrap;html=1;" parent="1" vertex="1">
          <mxGeometry x="170" y="355" width="30" height="10" as="geometry" />
        </mxCell>
        <mxCell id="4f2rP_CuyKLgWLRIfdCz-13" value="" style="endArrow=classic;html=1;rounded=0;entryX=0.5;entryY=0;entryDx=0;entryDy=0;exitX=0.5;exitY=1;exitDx=0;exitDy=0;dashed=1;dashPattern=12 12;" parent="1" source="4f2rP_CuyKLgWLRIfdCz-4" target="4f2rP_CuyKLgWLRIfdCz-10" edge="1">
          <mxGeometry width="50" height="50" relative="1" as="geometry">
            <mxPoint x="284.84" y="160" as="sourcePoint" />
            <mxPoint x="284.84" y="220" as="targetPoint" />
          </mxGeometry>
        </mxCell>
        <mxCell id="4f2rP_CuyKLgWLRIfdCz-15" value="Zastavka.pas" style="rounded=0;whiteSpace=wrap;html=1;" parent="1" vertex="1">
          <mxGeometry x="-100" y="265" width="170" height="55" as="geometry" />
        </mxCell>
        <mxCell id="4f2rP_CuyKLgWLRIfdCz-16" value="" style="rounded=0;whiteSpace=wrap;html=1;" parent="1" vertex="1">
          <mxGeometry x="-120" y="280" width="30" height="10" as="geometry" />
        </mxCell>
        <mxCell id="4f2rP_CuyKLgWLRIfdCz-17" value="" style="rounded=0;whiteSpace=wrap;html=1;" parent="1" vertex="1">
          <mxGeometry x="-120" y="300" width="30" height="10" as="geometry" />
        </mxCell>
        <mxCell id="4f2rP_CuyKLgWLRIfdCz-18" value="" style="endArrow=classic;html=1;rounded=0;entryX=1;entryY=0.5;entryDx=0;entryDy=0;exitX=0;exitY=0;exitDx=0;exitDy=0;dashed=1;dashPattern=12 12;" parent="1" source="4f2rP_CuyKLgWLRIfdCz-10" target="4f2rP_CuyKLgWLRIfdCz-15" edge="1">
          <mxGeometry width="50" height="50" relative="1" as="geometry">
            <mxPoint x="285" y="275" as="sourcePoint" />
            <mxPoint x="285" y="330" as="targetPoint" />
          </mxGeometry>
        </mxCell>
        <mxCell id="4f2rP_CuyKLgWLRIfdCz-20" value="" style="endArrow=classic;html=1;rounded=0;entryX=0.5;entryY=0;entryDx=0;entryDy=0;exitX=0.5;exitY=1;exitDx=0;exitDy=0;dashed=1;dashPattern=12 12;" parent="1" source="4f2rP_CuyKLgWLRIfdCz-10" target="4f2rP_CuyKLgWLRIfdCz-22" edge="1">
          <mxGeometry width="50" height="50" relative="1" as="geometry">
            <mxPoint x="285" y="275" as="sourcePoint" />
            <mxPoint x="275" y="430" as="targetPoint" />
          </mxGeometry>
        </mxCell>
        <mxCell id="4f2rP_CuyKLgWLRIfdCz-22" value="MainMenu.dfm&lt;div&gt;(форма главного меню)&lt;/div&gt;" style="rounded=0;whiteSpace=wrap;html=1;" parent="1" vertex="1">
          <mxGeometry x="190" y="430" width="170" height="55" as="geometry" />
        </mxCell>
        <mxCell id="4f2rP_CuyKLgWLRIfdCz-23" value="" style="rounded=0;whiteSpace=wrap;html=1;" parent="1" vertex="1">
          <mxGeometry x="170" y="445" width="30" height="10" as="geometry" />
        </mxCell>
        <mxCell id="4f2rP_CuyKLgWLRIfdCz-24" value="" style="rounded=0;whiteSpace=wrap;html=1;" parent="1" vertex="1">
          <mxGeometry x="170" y="465" width="30" height="10" as="geometry" />
        </mxCell>
        <mxCell id="4f2rP_CuyKLgWLRIfdCz-25" value="" style="endArrow=classic;html=1;rounded=0;entryX=1;entryY=0.5;entryDx=0;entryDy=0;exitX=0;exitY=0;exitDx=0;exitDy=0;dashed=1;dashPattern=12 12;" parent="1" source="4f2rP_CuyKLgWLRIfdCz-22" target="4f2rP_CuyKLgWLRIfdCz-26" edge="1">
          <mxGeometry width="50" height="50" relative="1" as="geometry">
            <mxPoint x="200" y="330" as="sourcePoint" />
            <mxPoint x="80" y="303" as="targetPoint" />
          </mxGeometry>
        </mxCell>
        <mxCell id="4f2rP_CuyKLgWLRIfdCz-26" value="MainMenu.pas" style="rounded=0;whiteSpace=wrap;html=1;" parent="1" vertex="1">
          <mxGeometry x="-90" y="380" width="170" height="55" as="geometry" />
        </mxCell>
        <mxCell id="4f2rP_CuyKLgWLRIfdCz-27" value="" style="rounded=0;whiteSpace=wrap;html=1;" parent="1" vertex="1">
          <mxGeometry x="-110" y="395" width="30" height="10" as="geometry" />
        </mxCell>
        <mxCell id="4f2rP_CuyKLgWLRIfdCz-28" value="" style="rounded=0;whiteSpace=wrap;html=1;" parent="1" vertex="1">
          <mxGeometry x="-110" y="415" width="30" height="10" as="geometry" />
        </mxCell>
        <mxCell id="4f2rP_CuyKLgWLRIfdCz-29" value="Unit4.dfm&lt;div&gt;(форма карты)&lt;/div&gt;" style="rounded=0;whiteSpace=wrap;html=1;" parent="1" vertex="1">
          <mxGeometry x="345" y="675" width="195" height="75" as="geometry" />
        </mxCell>
        <mxCell id="4f2rP_CuyKLgWLRIfdCz-30" value="" style="rounded=0;whiteSpace=wrap;html=1;" parent="1" vertex="1">
          <mxGeometry x="325" y="690" width="30" height="10" as="geometry" />
        </mxCell>
        <mxCell id="4f2rP_CuyKLgWLRIfdCz-31" value="" style="rounded=0;whiteSpace=wrap;html=1;" parent="1" vertex="1">
          <mxGeometry x="325" y="710" width="30" height="10" as="geometry" />
        </mxCell>
        <mxCell id="4f2rP_CuyKLgWLRIfdCz-32" value="" style="endArrow=classic;html=1;rounded=0;entryX=0.25;entryY=0;entryDx=0;entryDy=0;exitX=0.5;exitY=1;exitDx=0;exitDy=0;dashed=1;dashPattern=12 12;" parent="1" source="4f2rP_CuyKLgWLRIfdCz-37" target="4f2rP_CuyKLgWLRIfdCz-29" edge="1">
          <mxGeometry width="50" height="50" relative="1" as="geometry">
            <mxPoint x="265" y="750" as="sourcePoint" />
            <mxPoint x="80" y="683" as="targetPoint" />
          </mxGeometry>
        </mxCell>
        <mxCell id="4f2rP_CuyKLgWLRIfdCz-34" value="Unit4.pas" style="rounded=0;whiteSpace=wrap;html=1;" parent="1" vertex="1">
          <mxGeometry x="-90" y="540" width="170" height="55" as="geometry" />
        </mxCell>
        <mxCell id="4f2rP_CuyKLgWLRIfdCz-35" value="" style="rounded=0;whiteSpace=wrap;html=1;" parent="1" vertex="1">
          <mxGeometry x="-110" y="555" width="30" height="10" as="geometry" />
        </mxCell>
        <mxCell id="4f2rP_CuyKLgWLRIfdCz-36" value="" style="rounded=0;whiteSpace=wrap;html=1;" parent="1" vertex="1">
          <mxGeometry x="-110" y="575" width="30" height="10" as="geometry" />
        </mxCell>
        <mxCell id="4f2rP_CuyKLgWLRIfdCz-37" value="LoadingR.dfm&lt;div&gt;(форма загрузки на карту)&lt;/div&gt;" style="rounded=0;whiteSpace=wrap;html=1;" parent="1" vertex="1">
          <mxGeometry x="190" y="540" width="170" height="55" as="geometry" />
        </mxCell>
        <mxCell id="4f2rP_CuyKLgWLRIfdCz-38" value="" style="rounded=0;whiteSpace=wrap;html=1;" parent="1" vertex="1">
          <mxGeometry x="170" y="555" width="30" height="10" as="geometry" />
        </mxCell>
        <mxCell id="4f2rP_CuyKLgWLRIfdCz-39" value="" style="rounded=0;whiteSpace=wrap;html=1;" parent="1" vertex="1">
          <mxGeometry x="170" y="575" width="30" height="10" as="geometry" />
        </mxCell>
        <mxCell id="4f2rP_CuyKLgWLRIfdCz-40" value="" style="endArrow=classic;html=1;rounded=0;entryX=0.5;entryY=0;entryDx=0;entryDy=0;exitX=0.5;exitY=1;exitDx=0;exitDy=0;dashed=1;dashPattern=12 12;" parent="1" source="4f2rP_CuyKLgWLRIfdCz-22" target="4f2rP_CuyKLgWLRIfdCz-37" edge="1">
          <mxGeometry width="50" height="50" relative="1" as="geometry">
            <mxPoint x="285" y="385" as="sourcePoint" />
            <mxPoint x="285" y="440" as="targetPoint" />
          </mxGeometry>
        </mxCell>
        <mxCell id="4f2rP_CuyKLgWLRIfdCz-44" value="" style="endArrow=classic;html=1;rounded=0;exitX=0;exitY=1;exitDx=0;exitDy=0;dashed=1;dashPattern=12 12;entryX=1;entryY=0.5;entryDx=0;entryDy=0;entryPerimeter=0;" parent="1" source="4f2rP_CuyKLgWLRIfdCz-29" target="4f2rP_CuyKLgWLRIfdCz-50" edge="1">
          <mxGeometry width="50" height="50" relative="1" as="geometry">
            <mxPoint x="355" y="685" as="sourcePoint" />
            <mxPoint x="90" y="760" as="targetPoint" />
          </mxGeometry>
        </mxCell>
        <mxCell id="4f2rP_CuyKLgWLRIfdCz-50" value="USG.html&lt;div&gt;(справка)&lt;/div&gt;" style="strokeWidth=1;html=1;shape=mxgraph.flowchart.direct_data;whiteSpace=wrap;" parent="1" vertex="1">
          <mxGeometry x="-90" y="760" width="170" height="60" as="geometry" />
        </mxCell>
        <mxCell id="4f2rP_CuyKLgWLRIfdCz-54" value="&lt;div&gt;Unit6.dfm&lt;/div&gt;&lt;div&gt;(форма со скульптурой &quot;Горожанин 18 века&quot;)&lt;/div&gt;" style="rounded=0;whiteSpace=wrap;html=1;" parent="1" vertex="1">
          <mxGeometry x="-80" y="847.5" width="222.5" height="70" as="geometry" />
        </mxCell>
        <mxCell id="4f2rP_CuyKLgWLRIfdCz-55" value="" style="rounded=0;whiteSpace=wrap;html=1;" parent="1" vertex="1">
          <mxGeometry x="-100" y="862.5" width="30" height="10" as="geometry" />
        </mxCell>
        <mxCell id="4f2rP_CuyKLgWLRIfdCz-56" value="" style="rounded=0;whiteSpace=wrap;html=1;" parent="1" vertex="1">
          <mxGeometry x="-100" y="882.5" width="30" height="10" as="geometry" />
        </mxCell>
        <mxCell id="4f2rP_CuyKLgWLRIfdCz-57" value="&lt;div&gt;Unit6.pas&lt;/div&gt;" style="rounded=0;whiteSpace=wrap;html=1;" parent="1" vertex="1">
          <mxGeometry x="-58.75" y="967.5" width="180" height="60" as="geometry" />
        </mxCell>
        <mxCell id="4f2rP_CuyKLgWLRIfdCz-58" value="" style="rounded=0;whiteSpace=wrap;html=1;" parent="1" vertex="1">
          <mxGeometry x="-78.75" y="982.5" width="30" height="10" as="geometry" />
        </mxCell>
        <mxCell id="4f2rP_CuyKLgWLRIfdCz-59" value="" style="rounded=0;whiteSpace=wrap;html=1;" parent="1" vertex="1">
          <mxGeometry x="-78.75" y="1002.5" width="30" height="10" as="geometry" />
        </mxCell>
        <mxCell id="4f2rP_CuyKLgWLRIfdCz-62" value="" style="endArrow=classic;html=1;rounded=0;entryX=0.5;entryY=0;entryDx=0;entryDy=0;dashed=1;dashPattern=12 12;exitX=0.5;exitY=1;exitDx=0;exitDy=0;" parent="1" source="4f2rP_CuyKLgWLRIfdCz-66" target="4f2rP_CuyKLgWLRIfdCz-69" edge="1">
          <mxGeometry width="50" height="50" relative="1" as="geometry">
            <mxPoint x="340" y="910" as="sourcePoint" />
            <mxPoint x="24" y="740" as="targetPoint" />
          </mxGeometry>
        </mxCell>
        <mxCell id="4f2rP_CuyKLgWLRIfdCz-63" value="" style="endArrow=classic;html=1;rounded=0;entryX=0.5;entryY=0;entryDx=0;entryDy=0;exitX=0.5;exitY=1;exitDx=0;exitDy=0;dashed=1;dashPattern=12 12;" parent="1" source="4f2rP_CuyKLgWLRIfdCz-54" target="4f2rP_CuyKLgWLRIfdCz-57" edge="1">
          <mxGeometry width="50" height="50" relative="1" as="geometry">
            <mxPoint x="-95" y="672.5" as="sourcePoint" />
            <mxPoint x="24" y="752.5" as="targetPoint" />
          </mxGeometry>
        </mxCell>
        <mxCell id="4f2rP_CuyKLgWLRIfdCz-66" value="&lt;div&gt;Unit7.dfm&lt;/div&gt;&lt;div&gt;(форма со скульптурой &quot;Диалог&quot;)&lt;/div&gt;" style="rounded=0;whiteSpace=wrap;html=1;" parent="1" vertex="1">
          <mxGeometry x="220" y="850" width="220" height="70" as="geometry" />
        </mxCell>
        <mxCell id="4f2rP_CuyKLgWLRIfdCz-67" value="" style="rounded=0;whiteSpace=wrap;html=1;" parent="1" vertex="1">
          <mxGeometry x="200" y="865" width="30" height="10" as="geometry" />
        </mxCell>
        <mxCell id="4f2rP_CuyKLgWLRIfdCz-68" value="" style="rounded=0;whiteSpace=wrap;html=1;" parent="1" vertex="1">
          <mxGeometry x="200" y="885" width="30" height="10" as="geometry" />
        </mxCell>
        <mxCell id="4f2rP_CuyKLgWLRIfdCz-69" value="&lt;div&gt;Unit7.pas&lt;/div&gt;" style="rounded=0;whiteSpace=wrap;html=1;" parent="1" vertex="1">
          <mxGeometry x="240" y="977.5" width="180" height="60" as="geometry" />
        </mxCell>
        <mxCell id="4f2rP_CuyKLgWLRIfdCz-70" value="" style="rounded=0;whiteSpace=wrap;html=1;" parent="1" vertex="1">
          <mxGeometry x="220" y="992.5" width="30" height="10" as="geometry" />
        </mxCell>
        <mxCell id="4f2rP_CuyKLgWLRIfdCz-71" value="" style="rounded=0;whiteSpace=wrap;html=1;" parent="1" vertex="1">
          <mxGeometry x="220" y="1012.5" width="30" height="10" as="geometry" />
        </mxCell>
        <mxCell id="4f2rP_CuyKLgWLRIfdCz-72" value="" style="endArrow=classic;html=1;rounded=0;entryX=0.5;entryY=0;entryDx=0;entryDy=0;exitX=0.5;exitY=1;exitDx=0;exitDy=0;dashed=1;dashPattern=12 12;" parent="1" source="4f2rP_CuyKLgWLRIfdCz-73" target="4f2rP_CuyKLgWLRIfdCz-76" edge="1">
          <mxGeometry width="50" height="50" relative="1" as="geometry">
            <mxPoint x="205" y="662.5" as="sourcePoint" />
            <mxPoint x="324" y="742.5" as="targetPoint" />
          </mxGeometry>
        </mxCell>
        <mxCell id="4f2rP_CuyKLgWLRIfdCz-73" value="&lt;div&gt;Unit8.dfm&lt;/div&gt;&lt;div&gt;(форма со скульптурой &quot;Лягушка-путешественница&quot;)&lt;/div&gt;" style="rounded=0;whiteSpace=wrap;html=1;" parent="1" vertex="1">
          <mxGeometry x="520" y="852.5" width="222.5" height="70" as="geometry" />
        </mxCell>
        <mxCell id="4f2rP_CuyKLgWLRIfdCz-74" value="" style="rounded=0;whiteSpace=wrap;html=1;" parent="1" vertex="1">
          <mxGeometry x="500" y="867.5" width="30" height="10" as="geometry" />
        </mxCell>
        <mxCell id="4f2rP_CuyKLgWLRIfdCz-75" value="" style="rounded=0;whiteSpace=wrap;html=1;" parent="1" vertex="1">
          <mxGeometry x="500" y="887.5" width="30" height="10" as="geometry" />
        </mxCell>
        <mxCell id="4f2rP_CuyKLgWLRIfdCz-76" value="&lt;div&gt;Unit8.pas&lt;/div&gt;" style="rounded=0;whiteSpace=wrap;html=1;" parent="1" vertex="1">
          <mxGeometry x="540" y="977.5" width="180" height="60" as="geometry" />
        </mxCell>
        <mxCell id="4f2rP_CuyKLgWLRIfdCz-77" value="" style="rounded=0;whiteSpace=wrap;html=1;" parent="1" vertex="1">
          <mxGeometry x="520" y="992.5" width="30" height="10" as="geometry" />
        </mxCell>
        <mxCell id="4f2rP_CuyKLgWLRIfdCz-78" value="" style="rounded=0;whiteSpace=wrap;html=1;" parent="1" vertex="1">
          <mxGeometry x="520" y="1012.5" width="30" height="10" as="geometry" />
        </mxCell>
        <mxCell id="4f2rP_CuyKLgWLRIfdCz-79" value="" style="endArrow=classic;html=1;rounded=0;entryX=0.5;entryY=0;entryDx=0;entryDy=0;exitX=0.5;exitY=1;exitDx=0;exitDy=0;dashed=1;dashPattern=12 12;" parent="1" source="4f2rP_CuyKLgWLRIfdCz-80" target="4f2rP_CuyKLgWLRIfdCz-83" edge="1">
          <mxGeometry width="50" height="50" relative="1" as="geometry">
            <mxPoint x="485" y="662.5" as="sourcePoint" />
            <mxPoint x="604" y="742.5" as="targetPoint" />
          </mxGeometry>
        </mxCell>
        <mxCell id="4f2rP_CuyKLgWLRIfdCz-80" value="&lt;div&gt;Unit9.dfm&lt;/div&gt;&lt;div&gt;(форма со скульптурой &quot;Почтовый ящик&quot;)&lt;/div&gt;" style="rounded=0;whiteSpace=wrap;html=1;" parent="1" vertex="1">
          <mxGeometry x="800" y="852.5" width="220" height="70" as="geometry" />
        </mxCell>
        <mxCell id="4f2rP_CuyKLgWLRIfdCz-81" value="" style="rounded=0;whiteSpace=wrap;html=1;" parent="1" vertex="1">
          <mxGeometry x="780" y="867.5" width="30" height="10" as="geometry" />
        </mxCell>
        <mxCell id="4f2rP_CuyKLgWLRIfdCz-82" value="" style="rounded=0;whiteSpace=wrap;html=1;" parent="1" vertex="1">
          <mxGeometry x="780" y="887.5" width="30" height="10" as="geometry" />
        </mxCell>
        <mxCell id="4f2rP_CuyKLgWLRIfdCz-83" value="&lt;div&gt;Unit9.pas&lt;/div&gt;" style="rounded=0;whiteSpace=wrap;html=1;" parent="1" vertex="1">
          <mxGeometry x="820" y="977.5" width="180" height="60" as="geometry" />
        </mxCell>
        <mxCell id="4f2rP_CuyKLgWLRIfdCz-84" value="" style="rounded=0;whiteSpace=wrap;html=1;" parent="1" vertex="1">
          <mxGeometry x="800" y="992.5" width="30" height="10" as="geometry" />
        </mxCell>
        <mxCell id="4f2rP_CuyKLgWLRIfdCz-85" value="" style="rounded=0;whiteSpace=wrap;html=1;" parent="1" vertex="1">
          <mxGeometry x="800" y="1012.5" width="30" height="10" as="geometry" />
        </mxCell>
        <mxCell id="4f2rP_CuyKLgWLRIfdCz-86" value="" style="endArrow=classic;html=1;rounded=0;entryX=0.5;entryY=0;entryDx=0;entryDy=0;exitX=0.5;exitY=1;exitDx=0;exitDy=0;dashed=1;dashPattern=12 12;" parent="1" source="4f2rP_CuyKLgWLRIfdCz-87" target="4f2rP_CuyKLgWLRIfdCz-90" edge="1">
          <mxGeometry width="50" height="50" relative="1" as="geometry">
            <mxPoint x="765" y="660" as="sourcePoint" />
            <mxPoint x="884" y="740" as="targetPoint" />
          </mxGeometry>
        </mxCell>
        <mxCell id="4f2rP_CuyKLgWLRIfdCz-87" value="&lt;div&gt;Unit10.dfm&lt;/div&gt;&lt;div&gt;(форма со скульптурой &quot;Петрушка&quot;)&lt;/div&gt;" style="rounded=0;whiteSpace=wrap;html=1;" parent="1" vertex="1">
          <mxGeometry x="1080" y="850" width="220" height="70" as="geometry" />
        </mxCell>
        <mxCell id="4f2rP_CuyKLgWLRIfdCz-88" value="" style="rounded=0;whiteSpace=wrap;html=1;" parent="1" vertex="1">
          <mxGeometry x="1060" y="865" width="30" height="10" as="geometry" />
        </mxCell>
        <mxCell id="4f2rP_CuyKLgWLRIfdCz-89" value="" style="rounded=0;whiteSpace=wrap;html=1;" parent="1" vertex="1">
          <mxGeometry x="1060" y="885" width="30" height="10" as="geometry" />
        </mxCell>
        <mxCell id="4f2rP_CuyKLgWLRIfdCz-90" value="&lt;div&gt;Unit10.pas&lt;/div&gt;" style="rounded=0;whiteSpace=wrap;html=1;" parent="1" vertex="1">
          <mxGeometry x="1100" y="975" width="180" height="60" as="geometry" />
        </mxCell>
        <mxCell id="4f2rP_CuyKLgWLRIfdCz-91" value="" style="rounded=0;whiteSpace=wrap;html=1;" parent="1" vertex="1">
          <mxGeometry x="1080" y="990" width="30" height="10" as="geometry" />
        </mxCell>
        <mxCell id="4f2rP_CuyKLgWLRIfdCz-92" value="" style="rounded=0;whiteSpace=wrap;html=1;" parent="1" vertex="1">
          <mxGeometry x="1080" y="1010" width="30" height="10" as="geometry" />
        </mxCell>
        <mxCell id="4f2rP_CuyKLgWLRIfdCz-103" value="&lt;div&gt;Unit13.dfm&lt;/div&gt;&lt;div&gt;(форма со скульптурой &quot;Ладья-нассад&quot;)&lt;/div&gt;" style="rounded=0;whiteSpace=wrap;html=1;" parent="1" vertex="1">
          <mxGeometry x="990" y="565" width="220" height="70" as="geometry" />
        </mxCell>
        <mxCell id="4f2rP_CuyKLgWLRIfdCz-104" value="" style="rounded=0;whiteSpace=wrap;html=1;" parent="1" vertex="1">
          <mxGeometry x="970" y="580" width="30" height="10" as="geometry" />
        </mxCell>
        <mxCell id="4f2rP_CuyKLgWLRIfdCz-105" value="" style="rounded=0;whiteSpace=wrap;html=1;" parent="1" vertex="1">
          <mxGeometry x="970" y="600" width="30" height="10" as="geometry" />
        </mxCell>
        <mxCell id="4f2rP_CuyKLgWLRIfdCz-106" value="&lt;div&gt;Unit13.pas&lt;/div&gt;" style="rounded=0;whiteSpace=wrap;html=1;" parent="1" vertex="1">
          <mxGeometry x="1010" y="455" width="180" height="60" as="geometry" />
        </mxCell>
        <mxCell id="4f2rP_CuyKLgWLRIfdCz-107" value="" style="rounded=0;whiteSpace=wrap;html=1;" parent="1" vertex="1">
          <mxGeometry x="990" y="470" width="30" height="10" as="geometry" />
        </mxCell>
        <mxCell id="4f2rP_CuyKLgWLRIfdCz-108" value="" style="rounded=0;whiteSpace=wrap;html=1;" parent="1" vertex="1">
          <mxGeometry x="990" y="490" width="30" height="10" as="geometry" />
        </mxCell>
        <mxCell id="4f2rP_CuyKLgWLRIfdCz-111" value="&lt;div&gt;Unit11.dfm&lt;/div&gt;&lt;div&gt;(форма со скульптурой &quot;Верность&quot;)&lt;/div&gt;" style="rounded=0;whiteSpace=wrap;html=1;" parent="1" vertex="1">
          <mxGeometry x="1210" y="755" width="220" height="70" as="geometry" />
        </mxCell>
        <mxCell id="4f2rP_CuyKLgWLRIfdCz-112" value="" style="rounded=0;whiteSpace=wrap;html=1;" parent="1" vertex="1">
          <mxGeometry x="1190" y="770" width="30" height="10" as="geometry" />
        </mxCell>
        <mxCell id="4f2rP_CuyKLgWLRIfdCz-113" value="" style="rounded=0;whiteSpace=wrap;html=1;" parent="1" vertex="1">
          <mxGeometry x="1190" y="790" width="30" height="10" as="geometry" />
        </mxCell>
        <mxCell id="4f2rP_CuyKLgWLRIfdCz-114" value="&lt;div&gt;Unit11.pas&lt;/div&gt;" style="rounded=0;whiteSpace=wrap;html=1;" parent="1" vertex="1">
          <mxGeometry x="1450" y="637.5" width="180" height="60" as="geometry" />
        </mxCell>
        <mxCell id="4f2rP_CuyKLgWLRIfdCz-115" value="" style="rounded=0;whiteSpace=wrap;html=1;" parent="1" vertex="1">
          <mxGeometry x="1430" y="652.5" width="30" height="10" as="geometry" />
        </mxCell>
        <mxCell id="4f2rP_CuyKLgWLRIfdCz-116" value="" style="rounded=0;whiteSpace=wrap;html=1;" parent="1" vertex="1">
          <mxGeometry x="1430" y="672.5" width="30" height="10" as="geometry" />
        </mxCell>
        <mxCell id="4f2rP_CuyKLgWLRIfdCz-119" value="&lt;div&gt;Unit14.dfm&lt;/div&gt;&lt;div&gt;(форма со скульптурой &quot;Дорожный рабочий&quot;)&lt;/div&gt;" style="rounded=0;whiteSpace=wrap;html=1;" parent="1" vertex="1">
          <mxGeometry x="695" y="540" width="220" height="70" as="geometry" />
        </mxCell>
        <mxCell id="4f2rP_CuyKLgWLRIfdCz-120" value="" style="rounded=0;whiteSpace=wrap;html=1;" parent="1" vertex="1">
          <mxGeometry x="675" y="555" width="30" height="10" as="geometry" />
        </mxCell>
        <mxCell id="4f2rP_CuyKLgWLRIfdCz-121" value="" style="rounded=0;whiteSpace=wrap;html=1;" parent="1" vertex="1">
          <mxGeometry x="675" y="575" width="30" height="10" as="geometry" />
        </mxCell>
        <mxCell id="4f2rP_CuyKLgWLRIfdCz-122" value="&lt;div&gt;Unit14.pas&lt;/div&gt;" style="rounded=0;whiteSpace=wrap;html=1;" parent="1" vertex="1">
          <mxGeometry x="717.5" y="405" width="180" height="60" as="geometry" />
        </mxCell>
        <mxCell id="4f2rP_CuyKLgWLRIfdCz-123" value="" style="rounded=0;whiteSpace=wrap;html=1;" parent="1" vertex="1">
          <mxGeometry x="697.5" y="420" width="30" height="10" as="geometry" />
        </mxCell>
        <mxCell id="4f2rP_CuyKLgWLRIfdCz-124" value="" style="rounded=0;whiteSpace=wrap;html=1;" parent="1" vertex="1">
          <mxGeometry x="697.5" y="440" width="30" height="10" as="geometry" />
        </mxCell>
        <mxCell id="4f2rP_CuyKLgWLRIfdCz-126" value="" style="endArrow=classic;html=1;rounded=0;entryX=0.5;entryY=1;entryDx=0;entryDy=0;exitX=0.5;exitY=0;exitDx=0;exitDy=0;dashed=1;dashPattern=12 12;" parent="1" source="4f2rP_CuyKLgWLRIfdCz-119" target="4f2rP_CuyKLgWLRIfdCz-122" edge="1">
          <mxGeometry width="50" height="50" relative="1" as="geometry">
            <mxPoint x="708" y="700" as="sourcePoint" />
            <mxPoint x="815" y="620" as="targetPoint" />
          </mxGeometry>
        </mxCell>
        <mxCell id="4f2rP_CuyKLgWLRIfdCz-127" value="" style="endArrow=classic;html=1;rounded=0;entryX=0.5;entryY=1;entryDx=0;entryDy=0;exitX=0.5;exitY=0;exitDx=0;exitDy=0;dashed=1;dashPattern=12 12;" parent="1" source="4f2rP_CuyKLgWLRIfdCz-103" target="4f2rP_CuyKLgWLRIfdCz-106" edge="1">
          <mxGeometry width="50" height="50" relative="1" as="geometry">
            <mxPoint x="840" y="669" as="sourcePoint" />
            <mxPoint x="1000" y="628" as="targetPoint" />
          </mxGeometry>
        </mxCell>
        <mxCell id="4f2rP_CuyKLgWLRIfdCz-128" value="" style="endArrow=classic;html=1;rounded=0;entryX=0;entryY=1;entryDx=0;entryDy=0;exitX=0.5;exitY=0;exitDx=0;exitDy=0;dashed=1;dashPattern=12 12;" parent="1" source="4f2rP_CuyKLgWLRIfdCz-111" target="4f2rP_CuyKLgWLRIfdCz-114" edge="1">
          <mxGeometry width="50" height="50" relative="1" as="geometry">
            <mxPoint x="870" y="768" as="sourcePoint" />
            <mxPoint x="1200" y="800" as="targetPoint" />
          </mxGeometry>
        </mxCell>
        <mxCell id="4f2rP_CuyKLgWLRIfdCz-129" value="&lt;div&gt;Unit12.dfm&lt;/div&gt;&lt;div&gt;(форма со скульптурой &quot;Колонна-маяк&quot;)&lt;/div&gt;" style="rounded=0;whiteSpace=wrap;html=1;" parent="1" vertex="1">
          <mxGeometry x="1105" y="657.5" width="220" height="70" as="geometry" />
        </mxCell>
        <mxCell id="4f2rP_CuyKLgWLRIfdCz-130" value="" style="rounded=0;whiteSpace=wrap;html=1;" parent="1" vertex="1">
          <mxGeometry x="1085" y="672.5" width="30" height="10" as="geometry" />
        </mxCell>
        <mxCell id="4f2rP_CuyKLgWLRIfdCz-131" value="" style="rounded=0;whiteSpace=wrap;html=1;" parent="1" vertex="1">
          <mxGeometry x="1085" y="692.5" width="30" height="10" as="geometry" />
        </mxCell>
        <mxCell id="4f2rP_CuyKLgWLRIfdCz-132" value="&lt;div&gt;Unit12.pas&lt;/div&gt;" style="rounded=0;whiteSpace=wrap;html=1;" parent="1" vertex="1">
          <mxGeometry x="1250" y="515" width="180" height="60" as="geometry" />
        </mxCell>
        <mxCell id="4f2rP_CuyKLgWLRIfdCz-133" value="" style="rounded=0;whiteSpace=wrap;html=1;" parent="1" vertex="1">
          <mxGeometry x="1230" y="530" width="30" height="10" as="geometry" />
        </mxCell>
        <mxCell id="4f2rP_CuyKLgWLRIfdCz-134" value="" style="rounded=0;whiteSpace=wrap;html=1;" parent="1" vertex="1">
          <mxGeometry x="1230" y="550" width="30" height="10" as="geometry" />
        </mxCell>
        <mxCell id="4f2rP_CuyKLgWLRIfdCz-139" value="" style="endArrow=classic;html=1;rounded=0;entryX=1;entryY=0.5;entryDx=0;entryDy=0;exitX=0;exitY=0.75;exitDx=0;exitDy=0;dashed=1;dashPattern=12 12;" parent="1" source="4f2rP_CuyKLgWLRIfdCz-140" target="4f2rP_CuyKLgWLRIfdCz-143" edge="1">
          <mxGeometry width="50" height="50" relative="1" as="geometry">
            <mxPoint x="-709" y="460" as="sourcePoint" />
            <mxPoint x="-590" y="540" as="targetPoint" />
          </mxGeometry>
        </mxCell>
        <mxCell id="4f2rP_CuyKLgWLRIfdCz-140" value="&lt;div&gt;Test.dfm&lt;/div&gt;&lt;div&gt;(форма с тестом)&lt;/div&gt;" style="rounded=0;whiteSpace=wrap;html=1;" parent="1" vertex="1">
          <mxGeometry x="-90" y="660" width="222.5" height="70" as="geometry" />
        </mxCell>
        <mxCell id="4f2rP_CuyKLgWLRIfdCz-141" value="" style="rounded=0;whiteSpace=wrap;html=1;" parent="1" vertex="1">
          <mxGeometry x="-110" y="675" width="30" height="10" as="geometry" />
        </mxCell>
        <mxCell id="4f2rP_CuyKLgWLRIfdCz-142" value="" style="rounded=0;whiteSpace=wrap;html=1;" parent="1" vertex="1">
          <mxGeometry x="-110" y="695" width="30" height="10" as="geometry" />
        </mxCell>
        <mxCell id="4f2rP_CuyKLgWLRIfdCz-143" value="&lt;div&gt;Test.pas&lt;/div&gt;" style="rounded=0;whiteSpace=wrap;html=1;" parent="1" vertex="1">
          <mxGeometry x="-410" y="682.5" width="180" height="60" as="geometry" />
        </mxCell>
        <mxCell id="4f2rP_CuyKLgWLRIfdCz-144" value="" style="rounded=0;whiteSpace=wrap;html=1;" parent="1" vertex="1">
          <mxGeometry x="-430" y="697.5" width="30" height="10" as="geometry" />
        </mxCell>
        <mxCell id="4f2rP_CuyKLgWLRIfdCz-145" value="" style="rounded=0;whiteSpace=wrap;html=1;" parent="1" vertex="1">
          <mxGeometry x="-430" y="717.5" width="30" height="10" as="geometry" />
        </mxCell>
        <mxCell id="4f2rP_CuyKLgWLRIfdCz-156" value="" style="endArrow=classic;html=1;rounded=0;entryX=0.5;entryY=1;entryDx=0;entryDy=0;dashed=1;dashPattern=12 12;exitX=0.5;exitY=0;exitDx=0;exitDy=0;" parent="1" source="4f2rP_CuyKLgWLRIfdCz-129" target="4f2rP_CuyKLgWLRIfdCz-132" edge="1">
          <mxGeometry width="50" height="50" relative="1" as="geometry">
            <mxPoint x="549" y="711" as="sourcePoint" />
            <mxPoint x="1095" y="703" as="targetPoint" />
          </mxGeometry>
        </mxCell>
        <mxCell id="4f2rP_CuyKLgWLRIfdCz-157" value="&lt;div&gt;Unit14.dfm&lt;/div&gt;&lt;div&gt;(форма со скульптурой &quot;Дорожный рабочий&quot;)&lt;/div&gt;" style="rounded=0;whiteSpace=wrap;html=1;" parent="1" vertex="1">
          <mxGeometry x="415" y="532.5" width="220" height="70" as="geometry" />
        </mxCell>
        <mxCell id="4f2rP_CuyKLgWLRIfdCz-158" value="" style="rounded=0;whiteSpace=wrap;html=1;" parent="1" vertex="1">
          <mxGeometry x="395" y="547.5" width="30" height="10" as="geometry" />
        </mxCell>
        <mxCell id="4f2rP_CuyKLgWLRIfdCz-159" value="" style="rounded=0;whiteSpace=wrap;html=1;" parent="1" vertex="1">
          <mxGeometry x="395" y="567.5" width="30" height="10" as="geometry" />
        </mxCell>
        <mxCell id="4f2rP_CuyKLgWLRIfdCz-160" value="&lt;div&gt;Unit14.pas&lt;/div&gt;" style="rounded=0;whiteSpace=wrap;html=1;" parent="1" vertex="1">
          <mxGeometry x="435" y="405" width="180" height="60" as="geometry" />
        </mxCell>
        <mxCell id="4f2rP_CuyKLgWLRIfdCz-161" value="" style="rounded=0;whiteSpace=wrap;html=1;" parent="1" vertex="1">
          <mxGeometry x="415" y="420" width="30" height="10" as="geometry" />
        </mxCell>
        <mxCell id="4f2rP_CuyKLgWLRIfdCz-162" value="" style="rounded=0;whiteSpace=wrap;html=1;" parent="1" vertex="1">
          <mxGeometry x="415" y="440" width="30" height="10" as="geometry" />
        </mxCell>
        <mxCell id="4f2rP_CuyKLgWLRIfdCz-165" value="" style="endArrow=classic;html=1;rounded=0;entryX=0.5;entryY=1;entryDx=0;entryDy=0;exitX=0.5;exitY=0;exitDx=0;exitDy=0;dashed=1;dashPattern=12 12;" parent="1" source="4f2rP_CuyKLgWLRIfdCz-157" target="4f2rP_CuyKLgWLRIfdCz-160" edge="1">
          <mxGeometry width="50" height="50" relative="1" as="geometry">
            <mxPoint x="453" y="685" as="sourcePoint" />
            <mxPoint x="535" y="612" as="targetPoint" />
          </mxGeometry>
        </mxCell>
        <mxCell id="TQBF3IJCZFZXjA8qobQP-5" value="&lt;div&gt;Test.txt&lt;/div&gt;" style="rounded=0;whiteSpace=wrap;html=1;" vertex="1" parent="1">
          <mxGeometry x="-410" y="807.5" width="180" height="60" as="geometry" />
        </mxCell>
        <mxCell id="TQBF3IJCZFZXjA8qobQP-6" value="" style="rounded=0;whiteSpace=wrap;html=1;" vertex="1" parent="1">
          <mxGeometry x="-430" y="822.5" width="30" height="10" as="geometry" />
        </mxCell>
        <mxCell id="TQBF3IJCZFZXjA8qobQP-7" value="" style="rounded=0;whiteSpace=wrap;html=1;" vertex="1" parent="1">
          <mxGeometry x="-430" y="842.5" width="30" height="10" as="geometry" />
        </mxCell>
        <mxCell id="TQBF3IJCZFZXjA8qobQP-8" value="" style="endArrow=classic;html=1;rounded=0;entryX=0.5;entryY=0;entryDx=0;entryDy=0;exitX=0.5;exitY=1;exitDx=0;exitDy=0;dashed=1;dashPattern=12 12;" edge="1" parent="1" source="4f2rP_CuyKLgWLRIfdCz-143" target="TQBF3IJCZFZXjA8qobQP-5">
          <mxGeometry width="50" height="50" relative="1" as="geometry">
            <mxPoint x="-80" y="723" as="sourcePoint" />
            <mxPoint x="-220" y="723" as="targetPoint" />
          </mxGeometry>
        </mxCell>
        <mxCell id="TQBF3IJCZFZXjA8qobQP-17" value="" style="endArrow=classic;startArrow=classic;html=1;rounded=0;exitX=0.5;exitY=1;exitDx=0;exitDy=0;dashed=1;dashPattern=12 12;entryX=0.5;entryY=0;entryDx=0;entryDy=0;" edge="1" parent="1" source="4f2rP_CuyKLgWLRIfdCz-157" target="4f2rP_CuyKLgWLRIfdCz-29">
          <mxGeometry width="50" height="50" relative="1" as="geometry">
            <mxPoint x="927.5" y="760" as="sourcePoint" />
            <mxPoint x="662.5" y="653" as="targetPoint" />
          </mxGeometry>
        </mxCell>
        <mxCell id="TQBF3IJCZFZXjA8qobQP-18" value="" style="endArrow=classic;startArrow=classic;html=1;rounded=0;exitX=0.5;exitY=1;exitDx=0;exitDy=0;dashed=1;dashPattern=12 12;entryX=0.75;entryY=0;entryDx=0;entryDy=0;" edge="1" parent="1" source="4f2rP_CuyKLgWLRIfdCz-119" target="4f2rP_CuyKLgWLRIfdCz-29">
          <mxGeometry width="50" height="50" relative="1" as="geometry">
            <mxPoint x="365" y="695" as="sourcePoint" />
            <mxPoint x="100" y="588" as="targetPoint" />
          </mxGeometry>
        </mxCell>
        <mxCell id="TQBF3IJCZFZXjA8qobQP-19" value="" style="endArrow=classic;startArrow=classic;html=1;rounded=0;exitX=0.5;exitY=0;exitDx=0;exitDy=0;dashed=1;dashPattern=12 12;entryX=0.75;entryY=1;entryDx=0;entryDy=0;" edge="1" parent="1" source="4f2rP_CuyKLgWLRIfdCz-80" target="4f2rP_CuyKLgWLRIfdCz-29">
          <mxGeometry width="50" height="50" relative="1" as="geometry">
            <mxPoint x="375" y="705" as="sourcePoint" />
            <mxPoint x="110" y="598" as="targetPoint" />
          </mxGeometry>
        </mxCell>
        <mxCell id="TQBF3IJCZFZXjA8qobQP-20" value="" style="endArrow=classic;startArrow=classic;html=1;rounded=0;exitX=0.5;exitY=0;exitDx=0;exitDy=0;dashed=1;dashPattern=12 12;entryX=0.5;entryY=1;entryDx=0;entryDy=0;" edge="1" parent="1" source="4f2rP_CuyKLgWLRIfdCz-73" target="4f2rP_CuyKLgWLRIfdCz-29">
          <mxGeometry width="50" height="50" relative="1" as="geometry">
            <mxPoint x="385" y="715" as="sourcePoint" />
            <mxPoint x="120" y="608" as="targetPoint" />
          </mxGeometry>
        </mxCell>
        <mxCell id="TQBF3IJCZFZXjA8qobQP-21" value="" style="endArrow=classic;startArrow=classic;html=1;rounded=0;exitX=0.5;exitY=0;exitDx=0;exitDy=0;dashed=1;dashPattern=12 12;entryX=0.25;entryY=1;entryDx=0;entryDy=0;" edge="1" parent="1" source="4f2rP_CuyKLgWLRIfdCz-66" target="4f2rP_CuyKLgWLRIfdCz-29">
          <mxGeometry width="50" height="50" relative="1" as="geometry">
            <mxPoint x="395" y="725" as="sourcePoint" />
            <mxPoint x="130" y="618" as="targetPoint" />
          </mxGeometry>
        </mxCell>
        <mxCell id="TQBF3IJCZFZXjA8qobQP-22" value="" style="endArrow=classic;startArrow=classic;html=1;rounded=0;exitX=0;exitY=0.75;exitDx=0;exitDy=0;dashed=1;dashPattern=12 12;entryX=1;entryY=0.5;entryDx=0;entryDy=0;" edge="1" parent="1" source="4f2rP_CuyKLgWLRIfdCz-129" target="4f2rP_CuyKLgWLRIfdCz-29">
          <mxGeometry width="50" height="50" relative="1" as="geometry">
            <mxPoint x="405" y="735" as="sourcePoint" />
            <mxPoint x="140" y="628" as="targetPoint" />
          </mxGeometry>
        </mxCell>
        <mxCell id="TQBF3IJCZFZXjA8qobQP-23" value="" style="endArrow=classic;startArrow=classic;html=1;rounded=0;exitX=0.5;exitY=1;exitDx=0;exitDy=0;dashed=1;dashPattern=12 12;entryX=1;entryY=0.25;entryDx=0;entryDy=0;" edge="1" parent="1" source="4f2rP_CuyKLgWLRIfdCz-103" target="4f2rP_CuyKLgWLRIfdCz-29">
          <mxGeometry width="50" height="50" relative="1" as="geometry">
            <mxPoint x="1110" y="645" as="sourcePoint" />
            <mxPoint x="550" y="723" as="targetPoint" />
          </mxGeometry>
        </mxCell>
        <mxCell id="TQBF3IJCZFZXjA8qobQP-24" value="" style="endArrow=classic;startArrow=classic;html=1;rounded=0;exitX=0;exitY=0.25;exitDx=0;exitDy=0;dashed=1;dashPattern=12 12;entryX=1;entryY=0.75;entryDx=0;entryDy=0;" edge="1" parent="1" source="4f2rP_CuyKLgWLRIfdCz-113" target="4f2rP_CuyKLgWLRIfdCz-29">
          <mxGeometry width="50" height="50" relative="1" as="geometry">
            <mxPoint x="1115" y="720" as="sourcePoint" />
            <mxPoint x="550" y="723" as="targetPoint" />
          </mxGeometry>
        </mxCell>
        <mxCell id="TQBF3IJCZFZXjA8qobQP-25" value="" style="endArrow=classic;startArrow=classic;html=1;rounded=0;exitX=0;exitY=0;exitDx=0;exitDy=0;dashed=1;dashPattern=12 12;entryX=1;entryY=1;entryDx=0;entryDy=0;" edge="1" parent="1" source="4f2rP_CuyKLgWLRIfdCz-87" target="4f2rP_CuyKLgWLRIfdCz-29">
          <mxGeometry width="50" height="50" relative="1" as="geometry">
            <mxPoint x="1200" y="802" as="sourcePoint" />
            <mxPoint x="550" y="741" as="targetPoint" />
          </mxGeometry>
        </mxCell>
        <mxCell id="TQBF3IJCZFZXjA8qobQP-27" value="" style="endArrow=classic;startArrow=classic;html=1;rounded=0;exitX=0;exitY=0.25;exitDx=0;exitDy=0;dashed=1;dashPattern=12 12;entryX=1;entryY=0.5;entryDx=0;entryDy=0;" edge="1" parent="1" source="4f2rP_CuyKLgWLRIfdCz-30" target="4f2rP_CuyKLgWLRIfdCz-140">
          <mxGeometry width="50" height="50" relative="1" as="geometry">
            <mxPoint x="355" y="685" as="sourcePoint" />
            <mxPoint x="90" y="578" as="targetPoint" />
          </mxGeometry>
        </mxCell>
        <mxCell id="TQBF3IJCZFZXjA8qobQP-28" value="" style="endArrow=classic;html=1;rounded=0;exitX=0;exitY=0;exitDx=0;exitDy=0;dashed=1;dashPattern=12 12;entryX=1;entryY=1;entryDx=0;entryDy=0;" edge="1" parent="1" source="4f2rP_CuyKLgWLRIfdCz-29" target="4f2rP_CuyKLgWLRIfdCz-34">
          <mxGeometry width="50" height="50" relative="1" as="geometry">
            <mxPoint x="355" y="760" as="sourcePoint" />
            <mxPoint x="90" y="800" as="targetPoint" />
          </mxGeometry>
        </mxCell>
      </root>
    </mxGraphModel>
  </diagram>
</mxfile>
